<?xml version="1.0" encoding="utf-8"?>
<!-- Generator: Adobe Illustrator 16.0.0, SVG Export Plug-In . SVG Version: 6.00 Build 0)  -->
<!DOCTYPE svg PUBLIC "-//W3C//DTD SVG 1.1//EN" "http://www.w3.org/Graphics/SVG/1.1/DTD/svg11.dtd">
<svg version="1.1" id="Layer_1" xmlns="http://www.w3.org/2000/svg" xmlns:xlink="http://www.w3.org/1999/xlink" x="0px" y="0px"
	 width="22px" height="22.039px" viewBox="1.5 1.48 22 22.039" enable-background="new 1.5 1.48 22 22.039" xml:space="preserve">
<g>
	<path d="M19.089,12.496c0,0.477-0.361,0.862-0.823,0.915H12.04c-0.254-0.02-0.456-0.231-0.472-0.486c0-0.003,0-0.008,0-0.012
		v-0.042V8.123V8.061c0.018-0.5,0.423-0.9,0.928-0.9c0.514,0,0.931,0.417,0.931,0.931v0.526v2.414v0.003
		c0,0.009-0.002,0.019-0.002,0.027c0,0.009,0.002,0.018,0.002,0.025v0.007c0.013,0.253,0.211,0.449,0.459,0.474l4.34,0.003
		C18.708,11.603,19.089,12.004,19.089,12.496z"/>
	<path d="M12.498,1.48c6.077,0,11.002,4.934,11.002,11.021c0,6.087-4.926,11.019-11.002,11.019C6.425,23.52,1.5,18.588,1.5,12.501
		C1.5,6.415,6.425,1.48,12.498,1.48z M20.651,12.501c0-4.508-3.65-8.16-8.149-8.16c-4.5,0-8.148,3.653-8.148,8.16
		c0,4.507,3.649,8.161,8.148,8.161C17.001,20.662,20.651,17.008,20.651,12.501z"/>
</g>
</svg>
