<?xml version="1.0" encoding="utf-8"?>
<!-- Generator: Adobe Illustrator 16.0.0, SVG Export Plug-In . SVG Version: 6.00 Build 0)  -->
<!DOCTYPE svg PUBLIC "-//W3C//DTD SVG 1.1//EN" "http://www.w3.org/Graphics/SVG/1.1/DTD/svg11.dtd">
<svg version="1.1" id="Layer_1" xmlns="http://www.w3.org/2000/svg" xmlns:xlink="http://www.w3.org/1999/xlink" x="0px" y="0px"
	 width="25.999px" height="17.544px" viewBox="2 6.229 25.999 17.544" enable-background="new 2 6.229 25.999 17.544"
	 xml:space="preserve">
<g>
	<path d="M2,21.77v1.678c0,0.179,0.143,0.326,0.323,0.326h25.273c0.18,0,0.323-0.147,0.323-0.326V21.77c0-0.178,0.179,0,0,0
		l-0.808-0.001v-0.192c0-6.48-5.097-11.792-11.494-12.134c0.596-0.256,1.018-0.849,1.018-1.539c0-0.923-0.753-1.674-1.676-1.674
		c-0.924,0-1.675,0.751-1.675,1.674c0,0.69,0.419,1.283,1.017,1.539C7.907,9.785,2.808,15.096,2.808,21.576v0.192 M27.92,22.556H2
		V21.78h25.92V22.556z"/>
	<path fill="#FFFFFF" stroke="#FFFFFF" stroke-width="0.2722" stroke-miterlimit="10" d="M16.867,11.824
		c3.698,0.673,6.727,3.453,7.715,7.08c0.049,0.177,0.209,0.298,0.386,0.298c0.035,0,0.07-0.006,0.104-0.018
		c0.214-0.057,0.34-0.278,0.28-0.488c-1.068-3.925-4.344-6.93-8.34-7.657c-0.219-0.043-0.425,0.104-0.466,0.322
		C16.508,11.578,16.649,11.785,16.867,11.824z"/>
	<rect x="2" y="21.688" fill="#FFFFFF" width="25.92" height="0.868"/>
</g>
</svg>
