<?xml version="1.0" encoding="utf-8"?>
<!-- Generator: Adobe Illustrator 16.0.0, SVG Export Plug-In . SVG Version: 6.00 Build 0)  -->
<!DOCTYPE svg PUBLIC "-//W3C//DTD SVG 1.1//EN" "http://www.w3.org/Graphics/SVG/1.1/DTD/svg11.dtd">
<svg version="1.1" id="Layer_1" xmlns="http://www.w3.org/2000/svg" xmlns:xlink="http://www.w3.org/1999/xlink" x="0px" y="0px"
	 width="34px" height="17.056px" viewBox="-1.999 1.971 34 17.056" enable-background="new -1.999 1.971 34 17.056"
	 xml:space="preserve">
<path id="user-14-icon" d="M31.998,19.027h-6.601c0-7.177-3.588-3.767-3.588-10.057c0-2.271,1.488-3.503,3.396-3.503
	c2.818,0,4.784,2.693,2.112,7.728c-0.88,1.654,0.934,2.049,2.881,2.498C32.145,16.143,31.998,17.168,31.998,19.027z M-0.2,15.693
	c1.947-0.449,3.758-0.843,2.879-2.498C0.008,8.161,1.975,5.467,4.792,5.467c1.908,0,3.396,1.232,3.396,3.503
	c0,6.29-3.588,2.88-3.588,10.057h-6.597C-1.997,17.168-2.147,16.143-0.2,15.693z M21.279,14.836
	c-2.45-0.571-4.727-1.062-3.623-3.144c3.359-6.333,0.89-9.721-2.658-9.721c-3.619,0-6.027,3.517-2.658,9.721
	c1.136,2.094-1.227,2.588-3.623,3.144c-2.449,0.563-2.258,1.849-2.258,4.191h17.077C23.539,16.685,23.728,15.394,21.279,14.836z"/>
</svg>
